# xmcd CD database file
#
# Track frame offsets:
#	150
#	8417
#	25610
#	43402
#	49992
#	69320
#	80880
#	98340
#	126432
#	143995
#	161055
#	164145
#	182660
#	198025
#	272612
#
# Disc length: 3706 seconds
#
# Revision: 0
# Processed by: cddbd v1.5.1PL0 Copyright (c) Steve Scherf et al.
# Submitted via: CDex 1.51
#
DISCID=cc0e780f
DTITLE=Liv - The First chapter
DYEAR=2002
DGENRE=Punk Rock
TTITLE0=The First chapter
TTITLE1=HATE
TTITLE2=Without you
TTITLE3=Valor
TTITLE4=Try
TTITLE5=Losers
TTITLE6=Payback
TTITLE7=T
TTITLE8=SOUL
TTITLE9=I wanna be with you
TTITLE10=What?
TTITLE11=Pain
TTITLE12=銀月
TTITLE13=BRAVE
TTITLE14=データ
EXTD=YEAR: 2002
EXTT0=
EXTT1=
EXTT2=
EXTT3=
EXTT4=
EXTT5=
EXTT6=
EXTT7=
EXTT8=
EXTT9=
EXTT10=
EXTT11=
EXTT12=
EXTT13=
EXTT14=
PLAYORDER=
